<svg xmlns="http://www.w3.org/2000/svg" viewBox="0 0 24 24" width="24" height="24" fill="none" stroke="currentColor" stroke-width="2" stroke-linecap="round" stroke-linejoin="round">
  <path d="M12 2a10 10 0 1 0 10 10 10 10 0 0 0-10-10Z"></path>
  <path d="M12 12h.01"></path>
  <path d="M9 12a3 3 0 0 0 3 3 3 3 0 0 0 3-3 3 3 0 0 0-3-3 3 3 0 0 0-3 3Z"></path>
  <path d="M12 8v1"></path>
  <path d="M12 15v1"></path>
  <path d="M16 12h1"></path>
  <path d="M7 12h1"></path>
  <path d="M16 8l-1 1"></path>
  <path d="M9 15l-1 1"></path>
  <path d="M16 16l-1-1"></path>
  <path d="M9 9l-1-1"></path>
  <path d="M7 8h2"></path>
  <path d="M15 8h2"></path>
  <path d="M7 16h2"></path>
  <path d="M15 16h2"></path>
</svg>