<svg xmlns="http://www.w3.org/2000/svg" viewBox="0 0 100 100">
  <path d="M84.72 65.1c-.37-3.3.29-4.1 1.07-7.04-8.96 1.95-10.71.53-14.28.53-3.43 0-6.41-2.97-8.13-2.97s-2.7 2.5-6.41 2.5c-3.72 0-6.85-1.3-10.71-1.3-3.86 0-6.56 3.86-12.97 3.86-6.41 0-9.84-3.86-15.38-3.86-2.82 0-7.12 1.3-8.57 2.68.15 1.83.3 3.57.3 5.4 0 21.7 17.65 39.34 39.34 39.34 21.7 0 39.34-17.65 39.34-39.34 0-2.38-.15-4.76-.45-7.04-1.22 4.46-2.38 5.4-3.15 7.24z" fill="#336791"/>
  <path d="M49.96 5.4c-3.72 0-7.27.45-10.56 1.22.15.15.15.3.3.45 2.08 3.72 2.38 4.61 3.15 7.87.76 3.28.76 6.56 1.52 9.84.76 3.28 2.38 6.56 4.46 9.25 1.22 1.52 2.68 3.72 4.61 4.46 1.95.76 3.86.76 5.95.76 1.52 0 3.43-.76 4.46-1.83 1.52-1.52 2.38-3.72 3.15-5.8.76-2.08 1.52-4.31 1.95-6.56.45-2.23.76-4.61.76-6.85 0-2.23-.15-4.61-.45-6.85-.3-2.23-.76-4.46-1.52-6.56-.76-2.08-1.83-4.1-3.15-5.8-1.3-1.68-3.28-2.68-5.2-2.68-3.15 0-6.27 2.08-9.42 2.08z" fill="#336791"/>
  <path d="M84.72 65.1c.76-1.83 1.95-2.82 3.15-7.27.3 2.23.45 4.61.45 7.04 0 21.7-17.65 39.34-39.34 39.34-21.7 0-39.34-17.65-39.34-39.34 0-1.83-.15-3.57-.3-5.4 1.52-1.37 5.8-2.68 8.57-2.68 5.5 0 8.96 3.86 15.38 3.86 6.41 0 9.11-3.86 12.97-3.86 3.86 0 6.85 1.3 10.71 1.3 3.72 0 4.76-2.5 6.41-2.5s4.76 2.97 8.13 2.97c3.57 0 5.35 1.37 14.28-.53-.76 2.97-1.37 3.72-1.07 7.04z" fill="none" stroke="#fff" stroke-width="1.5" stroke-linecap="round" stroke-linejoin="round"/>
  <path d="M49.96 5.4c3.15 0 6.27-2.08 9.42-2.08 1.95 0 3.86.91 5.2 2.68 1.3 1.68 2.38 3.72 3.15 5.8.76 2.08 1.22 4.31 1.52 6.56.3 2.23.45 4.61.45 6.85 0 2.23-.3 4.61-.76 6.85-.45 2.23-1.22 4.46-1.95 6.56-.76 2.08-1.68 4.31-3.15 5.8-1.07 1.07-2.97 1.83-4.46 1.83-2.08 0-3.86 0-5.95-.76-1.95-.76-3.43-2.97-4.61-4.46-2.08-2.68-3.72-5.95-4.46-9.25-.76-3.28-.76-6.56-1.52-9.84-.76-3.28-1.07-4.16-3.15-7.87-.15-.15-.15-.3-.3-.45 3.28-.76 6.85-1.22 10.56-1.22z" fill="none" stroke="#fff" stroke-width="1.5" stroke-linecap="round" stroke-linejoin="round"/>
  <path d="M45.5 33.2c0 1.07-.91 1.95-1.95 1.95-1.07 0-1.95-.91-1.95-1.95 0-1.07.91-1.95 1.95-1.95 1.07 0 1.95.91 1.95 1.95z" fill="#fff"/>
  <path d="M67.2 33.2c0 1.07-.91 1.95-1.95 1.95-1.07 0-1.95-.91-1.95-1.95 0-1.07.91-1.95 1.95-1.95 1.07 0 1.95.91 1.95 1.95z" fill="#fff"/>
  <path d="M56.37 40.53c0 3.57-2.97 9.11-6.56 9.11-3.57 0-6.56-5.5-6.56-9.11 0-3.57 2.97-6.56 6.56-6.56 3.57 0 6.56 2.97 6.56 6.56z" fill="#fff"/>
  <path d="M54.42 40.53c0 2.5-2.08 7.12-4.61 7.12-2.5 0-4.61-4.61-4.61-7.12 0-2.5 2.08-4.61 4.61-4.61 2.5 0 4.61 2.08 4.61 4.61z" fill="#336791"/>
</svg>