<svg xmlns="http://www.w3.org/2000/svg" viewBox="0 0 100 100">
  <path fill="#FF4C4C" d="M11.1 15.7c-1.6 0-2.9 1.3-2.9 2.9v63c0 1.6 1.3 2.9 2.9 2.9h77.8c1.6 0 2.9-1.3 2.9-2.9v-63c0-1.6-1.3-2.9-2.9-2.9H11.1z"/>
  <path fill="#fff" d="M27.3 36.7v26.7h-5.6V36.7h5.6zm45.4 0v26.7h-5.6V36.7h5.6zm-22.7 0v26.7h-5.6V36.7h5.6z"/>
  <path fill="#fff" d="M50 36.7c7.4 0 13.3 6 13.3 13.3 0 7.4-6 13.3-13.3 13.3-7.4 0-13.3-6-13.3-13.3 0-7.4 6-13.3 13.3-13.3zm0 5.6c-4.3 0-7.8 3.5-7.8 7.8 0 4.3 3.5 7.8 7.8 7.8 4.3 0 7.8-3.5 7.8-7.8 0-4.3-3.5-7.8-7.8-7.8z"/>
  <path fill="#fff" d="M78.3 36.7c7.4 0 13.3 6 13.3 13.3 0 7.4-6 13.3-13.3 13.3-7.4 0-13.3-6-13.3-13.3 0-7.4 6-13.3 13.3-13.3zm0 5.6c-4.3 0-7.8 3.5-7.8 7.8 0 4.3 3.5 7.8 7.8 7.8 4.3 0 7.8-3.5 7.8-7.8 0-4.3-3.5-7.8-7.8-7.8z"/>
  <path fill="#fff" d="M21.7 36.7c7.4 0 13.3 6 13.3 13.3 0 7.4-6 13.3-13.3 13.3-7.4 0-13.3-6-13.3-13.3 0-7.4 6-13.3 13.3-13.3zm0 5.6c-4.3 0-7.8 3.5-7.8 7.8 0 4.3 3.5 7.8 7.8 7.8 4.3 0 7.8-3.5 7.8-7.8 0-4.3-3.5-7.8-7.8-7.8z"/>
</svg>